<?xml version="1.0" ?><!DOCTYPE svg  PUBLIC '-//W3C//DTD SVG 1.1//EN'  'http://www.w3.org/Graphics/SVG/1.1/DTD/svg11.dtd'><svg fill="#9fa8da" enable-background="new 0 0 512 512" id="Layer_1" version="1.1" viewBox="0 0 512 512" xml:space="preserve" xmlns="http://www.w3.org/2000/svg" xmlns:xlink="http://www.w3.org/1999/xlink"><g><path d="M464.8,257.4c0,40.3-0.1,80.7,0.1,121c0,4.1-1.4,6.2-4.7,8.2C393.6,427,327,467.5,260.6,508.1c-2.9,1.8-4.8,1.6-7.6-0.1   C186.2,467.3,119.4,426.6,52.5,386c-2.8-1.7-3.7-3.5-3.7-6.7c0.1-81.3,0.1-162.7,0-244c0-3.3,1-5,3.8-6.7   C119.2,88.2,185.7,47.7,252.2,7c3.5-2.1,5.9-2,9.4,0.1c66.5,40.6,133,81.1,199.6,121.6c2.8,1.7,3.7,3.6,3.7,6.8   C464.8,176.1,464.8,216.8,464.8,257.4z M61.8,257.4c0,38,0.1,76-0.1,114c0,3.6,1.1,5.6,4.2,7.5c62.2,37.7,124.3,75.6,186.4,113.5   c3.2,2,5.5,2.1,8.8,0.1c61.8-37.8,123.6-75.4,185.6-113c3.7-2.2,5.2-4.5,5.2-9c-0.2-75.3-0.2-150.7,0-226c0-4.5-1.4-7.1-5.3-9.4   c-61.8-37.4-123.5-75-185.2-112.7c-3.4-2.1-5.8-2.2-9.3-0.1c-61.9,37.9-123.9,75.6-186,113.2c-3.2,2-4.5,3.9-4.5,7.8   C61.9,181.4,61.8,219.4,61.8,257.4z"/><path d="M220.2,195.4c14.6,0,28.7,0,42.9,0c2.9,0,3.1,1.7,3.1,3.9c-0.1,4.6,0,9.2,0,14.9c2.7-3.3,4.7-5.8,6.8-8.2   c15.6-17,35.3-19.2,56.1-14.2c20.5,4.9,32.9,19.2,37.9,39.2c2.5,10.1,3.4,20.7,3.6,31.1c0.5,25.8,0.2,51.7,0.2,77.5   c0,2,0,3.9,0,6.2c-15.7,0-30.8,0-46.7,0c0-1.9,0-3.8,0-5.7c0-25.3,0-50.7,0-76c0-2.3,0-4.7-0.1-7c-1-16.8-11.5-26.9-28.4-27.3   c-15.9-0.4-27.6,10.1-29,26.2c-0.5,6.5-0.3,13-0.3,19.5c0,21.3,0,42.7,0,64c0,2,0,3.9,0,6.3c-15.5,0-30.6,0-46,0   C220.2,295.9,220.2,246,220.2,195.4z"/><path d="M190.1,346c-15.2,0-30.1,0-45.6,0c-0.1-1.9-0.2-3.7-0.2-5.5c0-46.1,0.1-92.3-0.1-138.4c0-4.5,1.2-6,5.8-5.9   c12.1,0.3,24.3,0.2,36.5,0.1c2.8,0,4.3,0.5,4.2,3.8c-0.1,48-0.1,95.9-0.1,143.9C190.5,344.4,190.3,344.9,190.1,346z"/><path d="M166.4,166.5c-13.9,0-23.6-9.7-23.6-23.5c0-13.8,10.1-23.7,24.1-23.7c13.7,0,23.4,9.8,23.6,23.7   C190.7,156.9,180.8,166.5,166.4,166.5z"/></g></svg>
